{"title":"Amphibious.3D.2010.DVDRip.XViD-FURiES","uid":6953239,"size":1161272741,"categoryP":"video","categoryS":"movies","magnet":"?xt=urn:btih:488b12fae62845d49c976ad013b1478bafd7f4dc&amp;dn=Amphibious.3D.2010.DVDRip.XViD-FURiES&amp;tr=udp%3A%2F%2Ftracker.openbittorrent.com%3A80&amp;tr=udp%3A%2F%2Fopen.demonii.com%3A1337&amp;tr=udp%3A%2F%2Ftracker.coppersurfer.tk%3A6969&amp;tr=udp%3A%2F%2Fexodus.desync.com%3A6969","seeders":0,"leechers":1,"uploader":"TvTeam","files":4,"time":1326479336,"description":". \n &lt;a href=&quot;\nhttp://www.torrenting.com&quot; rel=&quot;nofollow&quot; target=&quot;_NEW&quot;&gt;\nhttp://www.torrenting.com&lt;/a&gt;          :     Once &amp; For all ;)\n\n\n               www . Torrenting . Com \n\n(((((((((((((= Enjoy No RAR releases =))))))))))))))))))))\n\n\n...................................NFO:....................................\n\n.+-----------------------------------------------------------------------------+\n+----------------------------------FUSiON-------------------------------------+\n+-----------------------------------------------------------------------------+\n+-----------------------------------------------------------------------------+\nPLOT :------------------------------------------------------------------------+\n+-----------------------------------------------------------------------------+\n\nMarine biologist Skylar Shane hires an expat charter boat captain, Jack Bowman, \nto help her find prehistoric life form samples in the north Sumatran Sea. During \nthe expedition, they run into some of Jack's 'friends', a gang of smugglers \nheadquartered on a fishing platform in the middle of the sea. Tamal, an orphan \nsold into servitude on the fishing platform by his uncle, a 'Dukun' (sorcerer \nand master of black magic) shaman, begs Skylar to take him away. She empathizes \nwith the boy, who reminds her of her lost daughter, Rebecca, and is determined \nto help him, not knowing what lurks beneath the dark inky water, waiting to \nsurface. Ever since Tamal arrived, mysterious things begin to happen, until one \nby one the smugglers will be killed by the terrifying creature from the deep. \nIn the middle of an eerie, violent storm, the animus inside Tamal grows stronger, \ncalling for the ancient creature of his nightmares...\n\n+-----------------------------------------------------------------------------+\nShort Info :------------------------------------------------------------------+\n+-----------------------------------------------------------------------------+\n\nGenre:............: Horror \nDirected by.......: Brian Yuzna\nStarring..........: Mohammad Aditya, Bambang B.S., Steven Baray, Francis Bosco\nRelease Name......: Amphibious.3D.2010.DVDRip.XViD-FURiES\nRelease Group.....: FURiES\nSize..............: 1.08 GB\nVideo.............: 624x320 605 Kbps 25.000 fps\nAudio.............: MP3 320 Kbps\nLanguage:.........: English\nSubtitles.........: None\n\n+-----------------------------------------------------------------------------+\nFull Info :-------------------------------------------------------------------+\n+-----------------------------------------------------------------------------+\n   General\n      Complete name : Amphibious.3D.2010.DVDRip.XViD-FURiES.avi\n      Format : AVI\n      Format/Info : Audio Video Interleave\n      Format profile : OpenDML\n      File size : 1.08 GiB\n      Overall bit rate : 738 Kbps\n      Writing application : Lavf51.12.1\n   Video\n      Format : xvid\n      Codec ID : xvid\n      Duration : 3h 29mn\n      Bit rate : 605 Kbps\n      Width : 624 pixels\n      Height : 320 pixels\n      Display aspect ratio : 1.950\n      Frame rate : 25.000 fps\n      Resolution : 24 bits\n      Bits/(Pixel*Frame) : 0.121\n      Stream size : 908 MiB (82%)\n   Audio #1\n      ID : 1\n      Format : MPEG Audio\n      Format version : Version 1\n      Format profile : Layer 3\n      Codec ID : 55\n      Codec ID/Hint : MP3\n      Bit rate mode : Constant\n      Bit rate : 320 Kbps\n      Channel(s) : 2 channels\n      Sampling rate : 44.1 KHz\n      Resolution : 16 bits\n      Stream size : 190 MiB (17%)\n      Alignment : Aligned on interleaves\n      Interleave, duration : 26 ms (0.65 video frame)\n      Interleave, preload duration : 26 ms\n      Writing library : LAME3.97\n+-----------------------------------------------------------------------------+\nIMDB : -----------------------------------------------------------------------+\n+-----------------------------------------------------------------------------+\n &lt;a href=&quot;\nhttp://www.imdb.com/title/tt1540761/&quot; rel=&quot;nofollow&quot; target=&quot;_NEW&quot;&gt;\nhttp://www.imdb.com/title/tt1540761/&lt;/a&gt;\n\n+-----------------------------------------------------------------------------+\nScreens :---------------------------------------------------------------------+\n+-----------------------------------------------------------------------------+\n\n[img]http://img718.imageshack.us/img718/976/amphibious.jpg[/img]\n[img]http://img405.imageshack.us/img405/9677/amphibiouss.jpg[/img]\n[img]http://img836.imageshack.us/img836/862/amphibiousss.jpg[/img]\n[img]http://img88.imageshack.us/img88/2645/amphibioussss.jpg[/img]\n[img]http://img714.imageshack.us/img714/3530/amphibiousssss.jpg[/img]\n\n+-----------------------------------------------------------------------------+\nGreetings and Respect :-------------------------------------------------------+\n+-----------------------------------------------------------------------------+\n\nViSiON, CM8, BHRG, NODLABS, AMIABLE, THUGLiNE, NeDiVx, Larceny, \nPRESTiGE, HD4U, LOST, PSYCHD  ...\n\n+-----------------------------------------------------------------------------+\n+----------------------------------FUSiON-------------------------------------+\n+-----------------------------------------------------------------------------+","torrent":{"xt":"urn:btih:488b12fae62845d49c976ad013b1478bafd7f4dc","amp;dn":"Amphibious.3D.2010.DVDRip.XViD-FURiES","amp;tr":["udp%3A%2F%2Ftracker.openbittorrent.com%3A80","udp%3A%2F%2Fopen.demonii.com%3A1337","udp%3A%2F%2Ftracker.coppersurfer.tk%3A6969","udp%3A%2F%2Fexodus.desync.com%3A6969"],"infoHash":"488b12fae62845d49c976ad013b1478bafd7f4dc","infoHashBuffer":{"type":"Buffer","data":[72,139,18,250,230,40,69,212,156,151,106,208,19,177,71,139,175,215,244,220]},"announce":[],"urlList":[]}}